<svg xmlns="http://www.w3.org/2000/svg" version="1.1" xmlns:xlink="http://www.w3.org/1999/xlink" xmlns:svgjs="http://svgjs.dev/svgjs" width="1500" height="1500" viewBox="0 0 1500 1500"><rect width="1500" height="1500" fill="#000000"></rect><g transform="matrix(0.6666666666666666,0,0,0.6666666666666666,249.39393939393938,438.5856950067477)"><svg viewBox="0 0 396 247" data-background-color="#ffffff" preserveAspectRatio="xMidYMid meet" height="935" width="1500" xmlns="http://www.w3.org/2000/svg" xmlns:xlink="http://www.w3.org/1999/xlink"><g id="tight-bounds" transform="matrix(1,0,0,1,0.2400000000000091,-0.09999999999999432)"><svg viewBox="0 0 395.52 247.2" height="247.2" width="395.52"><g><svg></svg></g><g><svg viewBox="0 0 395.52 247.2" height="247.2" width="395.52"><g transform="matrix(1,0,0,1,75.54432,97.73729260273973)"><svg viewBox="0 0 244.43135999999998 51.72541479452054" height="51.72541479452054" width="244.43135999999998"><g><svg viewBox="0 0 244.43135999999998 51.72541479452054" height="51.72541479452054" width="244.43135999999998"><g><svg viewBox="0 0 244.43135999999998 51.72541479452054" height="51.72541479452054" width="244.43135999999998"><g><svg viewBox="0 0 244.43135999999998 51.72541479452054" height="51.72541479452054" width="244.43135999999998"><g id="textblocktransform"><svg viewBox="0 0 244.43135999999998 51.72541479452054" height="51.72541479452054" width="244.43135999999998" id="textblock"><g><svg viewBox="0 0 244.43135999999998 51.72541479452054" height="51.72541479452054" width="244.43135999999998"><g transform="matrix(1,0,0,1,0,0)"><svg width="244.43135999999998" viewBox="3.25 -35.45 171.08 36.21" height="51.72541479452054" data-palette-color="#2a2c35"><path d="M31.25-10.5L31.25-10.5Q31.25-8.33 30.42-6.42 29.59-4.52 28.16-3.09 26.73-1.66 24.83-0.83 22.92 0 20.75 0L20.75 0 3.25 0 3.25-35.01 20.75-35.01Q22.92-35.01 24.83-34.18 26.73-33.35 28.16-31.92 29.59-30.49 30.42-28.59 31.25-26.68 31.25-24.51L31.25-24.51Q31.25-23.54 30.98-22.51 30.71-21.48 30.22-20.53 29.74-19.58 29.05-18.8 28.37-18.02 27.54-17.5L27.54-17.5Q28.39-17.04 29.08-16.25 29.76-15.45 30.25-14.5 30.74-13.55 30.99-12.51 31.25-11.47 31.25-10.5ZM10.25-13.99L10.25-7.01 20.75-7.01Q21.48-7.01 22.12-7.28 22.75-7.54 23.23-8.02 23.71-8.5 23.97-9.13 24.24-9.77 24.24-10.5L24.24-10.5Q24.24-11.23 23.97-11.87 23.71-12.5 23.23-12.98 22.75-13.45 22.12-13.72 21.48-13.99 20.75-13.99L20.75-13.99 10.25-13.99ZM10.25-28L10.25-21 20.75-21Q21.48-21 22.12-21.26 22.75-21.53 23.23-22.01 23.71-22.49 23.97-23.13 24.24-23.78 24.24-24.51L24.24-24.51Q24.24-25.24 23.97-25.88 23.71-26.51 23.23-26.99 22.75-27.47 22.12-27.73 21.48-28 20.75-28L20.75-28 10.25-28ZM61.06-7.01L61.06 0 36.55 0 36.55-35.01 43.55-35.01 43.55-7.01 61.06-7.01ZM97.8-17.36L97.8-17.36Q97.8-14.87 97.15-12.56 96.5-10.25 95.33-8.24 94.16-6.23 92.5-4.57 90.84-2.91 88.84-1.72 86.84-0.54 84.52 0.11 82.2 0.76 79.71 0.76L79.71 0.76Q77.22 0.76 74.91 0.11 72.6-0.54 70.59-1.72 68.57-2.91 66.91-4.57 65.25-6.23 64.07-8.24 62.89-10.25 62.24-12.56 61.59-14.87 61.59-17.36L61.59-17.36Q61.59-19.85 62.24-22.17 62.89-24.49 64.07-26.49 65.25-28.49 66.91-30.15 68.57-31.81 70.59-32.98 72.6-34.16 74.91-34.8 77.22-35.45 79.71-35.45L79.71-35.45Q82.2-35.45 84.52-34.8 86.84-34.16 88.84-32.98 90.84-31.81 92.5-30.15 94.16-28.49 95.33-26.49 96.5-24.49 97.15-22.17 97.8-19.85 97.8-17.36ZM90.84-17.36L90.84-17.36Q90.84-19.65 89.96-21.69 89.08-23.73 87.58-25.23 86.08-26.73 84.04-27.61 82-28.49 79.71-28.49L79.71-28.49Q77.39-28.49 75.36-27.61 73.33-26.73 71.82-25.23 70.31-23.73 69.43-21.69 68.55-19.65 68.55-17.36L68.55-17.36Q68.55-15.06 69.43-13.05 70.31-11.04 71.82-9.52 73.33-8.01 75.36-7.13 77.39-6.25 79.71-6.25L79.71-6.25Q82-6.25 84.04-7.13 86.08-8.01 87.58-9.52 89.08-11.04 89.96-13.05 90.84-15.06 90.84-17.36ZM130.24-17.36L130.24-3.54Q127.8-1.46 124.8-0.35 121.79 0.76 118.55 0.76L118.55 0.76Q116.06 0.76 113.75 0.11 111.44-0.54 109.44-1.72 107.44-2.91 105.78-4.55 104.12-6.2 102.95-8.22 101.77-10.23 101.13-12.55 100.48-14.87 100.48-17.36L100.48-17.36Q100.48-19.85 101.13-22.14 101.77-24.44 102.95-26.45 104.12-28.47 105.78-30.11 107.44-31.76 109.44-32.93 111.44-34.11 113.75-34.75 116.06-35.4 118.55-35.4L118.55-35.4Q121.79-35.4 124.8-34.29 127.8-33.18 130.24-31.1L130.24-31.1 126.58-25Q124.99-26.61 122.92-27.53 120.84-28.44 118.55-28.44L118.55-28.44Q116.25-28.44 114.24-27.56 112.22-26.68 110.71-25.18 109.2-23.68 108.32-21.67 107.44-19.65 107.44-17.36L107.44-17.36Q107.44-15.04 108.32-13.01 109.2-10.99 110.71-9.47 112.22-7.96 114.24-7.08 116.25-6.2 118.55-6.2L118.55-6.2Q119.87-6.2 121.11-6.52 122.36-6.84 123.48-7.4L123.48-7.4 123.48-17.36 130.24-17.36ZM142.64-35.01L142.64 0 135.63 0 135.63-35.01 142.64-35.01ZM163.83-28L163.83 0 156.85 0 156.85-28 146.33-28 146.33-35.01 174.33-35.01 174.33-28 163.83-28Z" opacity="1" transform="matrix(1,0,0,1,0,0)" fill="#ffffff" class="wordmark-text-0" data-fill-palette-color="primary" id="text-0"></path></svg></g></svg></g></svg></g></svg></g></svg></g></svg></g></svg></g><path d="M192.461 91.737L192.461 31.522 8.305 31.522 8.305 215.678 192.461 215.678 192.461 155.463 187.796 155.463 187.796 211.013 12.97 211.013 12.97 36.187 187.796 36.187 187.796 91.737Z" fill="#ffffff" stroke="transparent" data-fill-palette-color="tertiary"></path></svg></g><defs></defs></svg><rect width="395.52" height="247.2" fill="none" stroke="none" visibility="hidden"></rect></g></svg></g></svg>